<?xml version="1.0" encoding="utf-8"?>
<!-- Generator: Adobe Illustrator 17.1.0, SVG Export Plug-In . SVG Version: 6.00 Build 0)  -->
<!DOCTYPE svg PUBLIC "-//W3C//DTD SVG 1.1//EN" "http://www.w3.org/Graphics/SVG/1.1/DTD/svg11.dtd">
<svg version="1.1" id="Calque_1" xmlns="http://www.w3.org/2000/svg" xmlns:xlink="http://www.w3.org/1999/xlink" x="0px" y="0px"
	 viewBox="0 0 708.7 708.7" enable-background="new 0 0 708.7 708.7" xml:space="preserve">
<g>
	<path fill="#F9B233" d="M708.7,618c0,49.9-40.8,90.7-90.7,90.7H90.7C40.8,708.7,0,667.8,0,618V90.7C0,40.8,40.8,0,90.7,0H618
		c49.9,0,90.7,40.8,90.7,90.7V618z"/>
</g>
<path fill="#D0251C" d="M462.3,597.8c-4.7-4.8-9.4-9.5-14.2-14.3c-0.1-0.8-0.2-1.5-0.2-2.3c1.2-12.4,5.3-16.5,17.7-16.9
	c11.4-0.3,22.8-0.1,34.2,0c4.2,0,9.3-0.9,9.6,5.6c0.3,7.5-5.4,6.1-10,6.3c-1.6,0.1-3.1,0-4.7,0c-4.6,0.1-9.2,0.2-13.9,0.3
	c-15.7,0-18,2.5-17.1,18.2C463.9,595.8,462.8,596.8,462.3,597.8z"/>
<path fill="#A48A7B" d="M457.3,592.4c0.5-1,1.6-2,1.5-3c-0.9-15.7,1.4-18.2,17.1-18.2c0.9,7.8,1.8,15.6,2.7,23.4
	c0,0-0.7-0.1-0.7-0.1l-0.7,0c-6.5,0.1-13,0.1-19.4,0.2C457.7,594,457.5,593.2,457.3,592.4z"/>
<path fill="#D0251C" d="M404.1,407.8c-4.6-3.8-8.5-8.5-13.5-10.8c-4.2-2-6.5-3.7-6.3-8.4c0.2-3.7,1.1-6.3,5.7-4.8
	c7,2.4,14.3,3.4,18.6,11c4.7,8.3,10.7,15.3,22.2,13.9c2.7-0.3,5.7,2.7,8.8,3.1c8.4,1,17,2.8,25.3,1.9c15-1.7,27.1,2.2,36.7,13.7
	c0.8,0.9,2,1.9,2,2.8c0.1,2.5-0.4,5-0.7,7.5c-2-0.7-4.7-0.9-5.9-2.3c-5-6-10.8-10.4-18.8-10.6c-8.3-0.2-16.5,0.3-24.8,0.2
	c-3.8,0-7.9,0.3-11.2-1.1c-18.1-7.4-34-5-47,10c-5.2,6-11.1,8.3-18.7,7.2c-18-2.6-34.4-1-45.8,16c-1,1.5-6.7,1.6-8.8,0.2
	c-4.9-3.2,0-5.1,2.2-6.6c3.2-2.2,4.9-3.9,0.3-6.2c0.7-1.1,1.2-2.5,2.3-3.2c15-9.9,30.3-18.2,49.4-12.8c2.2,0.6,5.5-0.5,7.5-1.9
	c5.8-3.9,11.4-8.3,16.9-12.8C401.7,412.7,402.3,410.7,404.1,407.8z"/>
<path fill="#D0251C" d="M500.8,362.8c5.6,0.5,8.9,0.3,11.8,1.3c7,2.4,12.2,0.6,18.4-3.6c21.9-15.3,38.3-7.9,52.1,12.1
	c0.8,1.2,0.7,4.4-0.1,5c-1.7,1.2-4.8,2.5-6.3,1.7c-3.7-1.9-7-4.8-10.1-7.7c-10.6-9.9-17.7-9.8-28.9-1.4c-5.8,4.4-5.3,8.5-3.3,14.1
	c1.7,4.7,3.1,9.7,3.2,14.6c0.1,2.1-3.4,4.4-5.3,6.5c-2-1.8-4.2-3.4-5.9-5.5c-0.9-1.1-0.5-3-1-4.5c-5.7-18.6-13.2-22.9-32.4-19.1
	c-1.9,0.4-4.1,1.4-5.7,0.9c-2.7-0.8-5.1-2.7-7.6-4.1c1.7-2.2,3-5.7,5.3-6.5C490.7,364.5,496.9,363.6,500.8,362.8z"/>
<path fill="#D0251C" d="M318.5,332.3c-21.6-2.2-24-1.7-28.9,17.1c-4.8,18.1-16.2,28.7-32.4,35.3c-2.6,1.1-6.1-0.2-9.3-0.5
	c1.2-3.3,1.4-7.7,3.7-9.7c4.4-3.8,10.2-5.9,15-9.3c10.8-7.7,11.6-14,1.3-22.2c-5.8-4.6-6.8-10.3-7.7-16.3c-0.4-2.4,2-5.1,3.1-7.7
	c3,1.3,6.4,2.3,9,4.2c1.1,0.8,0.6,3.8,1.2,5.6c2.2,6.7,6.8,7.9,10.8,2.2c8.8-12.7,20.2-15.3,33.9-10.3c2.6,1,4.5,4,6.7,6
	C322.3,329,319.7,331.2,318.5,332.3z"/>
<path fill="#D0251C" d="M360.1,291.4c3.2,1.7,5.3,2.7,7.2,4c15.2,10.2,16.6,9.7,27.3-6.1c2.3-3.3,6.2-5.8,9.9-7.8
	c1.5-0.8,5,0.1,6.1,1.4c1,1.1,0.1,4.2-0.5,6.1c-0.6,1.8-1.8,3.6-3.2,4.9c-11.1,10.3-12.3,22.9-9.5,36.9c0.5,2.5-1.3,7.3-3.3,8.1
	c-4.5,1.8-7.2-1.1-7.5-6.1c-0.7-13-7.6-20.7-20.1-24.2c-3.2-0.9-6-3.6-8.8-5.7c-1.9-1.5-3.4-3.4-5.1-5.1
	C355.1,295.7,357.6,293.6,360.1,291.4z"/>
<path fill="#D0251C" d="M495.1,524.5c0.8-3.5,1.1-5.5,1.8-7.4c5.1-13.7-0.4-24.5-8.9-34.7c-1.7-2-2-5.1-3-7.7
	c3.5-0.4,7.2-1.6,10.5-0.9c2.3,0.5,5.1,3.4,5.7,5.7c2.5,9.4,9.4,9.2,16.8,9c6.3-0.2,12.7-0.2,19,0.4c1.8,0.2,3.4,2.6,5.2,4
	c-1.8,1.7-3.4,4.6-5.5,4.9c-5.1,0.8-10.3,0.3-15.4,0.5c-9.9,0.3-10.7,1.3-11.5,11c-0.4,5.5-1,11.1-2.5,16.3c-0.8,2.8-4,4.8-6.1,7.2
	C499.1,529.6,496.8,526.7,495.1,524.5z"/>
<path fill="#D0251C" d="M461.4,300c11,8.2,20.1,1.6,29.8-2.3c2.3-0.9,6,1.7,9.1,2.7c-1.6,2.7-2.6,6.8-4.8,7.7
	c-7.6,3.1-12.3,7.1-12.5,16.2c-0.1,3.8-3.2,7.9-5.8,11.2c-1.3,1.7-4.3,2-6.6,3c-1.1-2.7-2.6-5.3-3-8.1c-0.2-1.6,1.7-3.4,2.5-5.1
	c2.6-5.7,1.7-9.7-5-11.7c-2.9-0.8-5.7-2.5-7.9-4.4c-1.1-1-1.8-4-1.1-5.2C457.2,302.3,459.6,301.3,461.4,300z"/>
<path fill="#D0251C" d="M415.9,522.9c-3.8-0.9-7-1.2-9.7-2.5c-1.2-0.6-2-3.2-1.9-4.9c0-0.9,2.1-1.8,3.3-2.6c0.2,1.4,0,3.6,0.8,4.1
	c2.1,1.3,4.7,1.7,7,2.7c1.5,0.6,2.7,1.7,4.1,2.6C418.1,522.6,416.7,522.8,415.9,522.9z"/>
<path fill="#D0251C" d="M342.4,394.9c-2.4-0.7-4.7-1.4-7.1-2.1c2.4-2.4,4.5-5.2,7.3-6.9c1.7-1,4.4-0.3,6.6-0.3
	c-0.9,0.7-2.1,1.3-2.6,2.2c-0.8,1.5-1,3.3-1.5,4.9l-0.2,0.1c-0.9,0.6-1.7,1.3-2.6,1.9C342.3,394.7,342.4,394.9,342.4,394.9z"/>
<path fill="#A48A7B" d="M636.9,419.3c-1.3-10.9-4.2-21.5-5.9-32.4c-3.1-20.4-13.5-36.5-28.8-50c-2.3-2-3.7-5.2-5.1-8.1
	c-4.1-8.8-6.5-18.9-12.4-26.2c-9.2-11.6-20.8-21.2-31.2-31.9c-18.5-19.1-41-30-67.3-33.5c-3.3-0.4-6.5-0.8-9.8-1.2
	c-9.2-1.3-19-1.2-27.5-4.3c-19.7-7.2-39.5-9.5-60.1-6c-5.8,1-11.8,3.3-17.4,2.5c-36.6-5.8-65.8,17.2-98.9,24.9
	c-5.1,1.2-9.8,5-14.1,8.3c-12.9,10.2-25.9,20.3-38.2,31.2c-14.2,12.7-22.8,28.9-24.8,48c-1.1,10.5-1.6,21.1-2.3,31.6
	c4.6,1.4,10,2.9,5.1,9.1c-4.1,5.3-0.8,9.3,0.9,13.9c7.3,6.9,13.8,14.1,17.7,23.9c2.3,5.7,8,10.3,12.8,14.6c3.7,3.3,8.4,5.5,12.6,8.1
	c3.9,0.5,7.8,0.9,11.7,1.4c6.6,1.7,15.7-0.1,15.3,11.2c0,0.3,1.2,0.6,1.8,1c7.7,3.9,10.7,10.7,11.6,18.8c4,1,8.3,1,8.1,7.5
	c-0.1,2.5,3.7,5.1,5.7,7.7c24.4,15,49.3,28.9,79.4,21.9c13.4-3.1,21.6,1.8,28.7,11.8c0.7,1,1.4,1.9,2.1,2.8c3.3,1.8,6.5,3.9,10,5.5
	c6.9,3.1,5.9,7.8,3,13c9.4,12.2,18.9,24.4,28.3,36.6c1.2-12.4,5.3-16.5,17.7-16.8c11.4-0.3,22.8-0.1,34.1,0c4.2,0,9.3-0.9,9.6,5.6
	c0.3,7.5-5.4,6.1-10,6.3c-1.6,0.1-3.1,0-4.7,0c23.9,3,46.7-1.8,68.7-10.3c17.9-6.9,26.3-22.4,27.3-40.7c0.5-9.7,4.7-13.6,12.1-18.5
	c8.3-5.4,17-12.5,21.3-21C634.3,464.9,639.6,442.6,636.9,419.3z M456.2,304c1-1.8,3.4-2.7,5.3-4c11,8.2,20.1,1.6,29.8-2.3
	c2.3-0.9,6,1.7,9.1,2.7c-1.6,2.7-2.6,6.8-4.8,7.7c-7.6,3.1-12.3,7.1-12.5,16.2c-0.1,3.8-3.2,7.9-5.8,11.2c-1.3,1.7-4.3,2-6.6,3
	c-1.1-2.7-2.6-5.3-3-8.1c-0.2-1.6,1.7-3.4,2.5-5.1c2.6-5.7,1.7-9.7-5-11.7c-2.9-0.8-5.7-2.5-7.9-4.4
	C456.2,308.2,455.5,305.2,456.2,304z M360.1,291.4c3.2,1.7,5.3,2.7,7.2,4c15.2,10.2,16.6,9.7,27.3-6.1c2.3-3.3,6.2-5.8,9.9-7.8
	c1.5-0.8,5,0.1,6.1,1.4c1,1.1,0.1,4.2-0.5,6.1c-0.6,1.8-1.8,3.6-3.2,4.9c-11.1,10.3-12.3,22.9-9.5,36.9c0.5,2.5-1.3,7.3-3.3,8.1
	c-4.5,1.8-7.2-1.1-7.5-6.1c-0.7-13-7.6-20.7-20.1-24.2c-3.2-0.9-6-3.6-8.8-5.7c-1.9-1.5-3.4-3.4-5.1-5.1
	C355.1,295.7,357.6,293.6,360.1,291.4z M342.6,385.9c1.7-1,4.4-0.3,6.6-0.3c-0.9,0.7-2.1,1.3-2.6,2.2c-0.8,1.5-1,3.3-1.5,4.9
	l-0.2,0.1c-0.9,0.6-1.7,1.3-2.6,1.9l0,0.2c-2.4-0.7-4.7-1.4-7.1-2.1C337.7,390.4,339.8,387.6,342.6,385.9z M299.1,472
	c-0.5,0.5-1,0.9-1.5,1.4c-0.2-0.3-0.4-0.6-0.5-1C297.8,472.3,298.5,472.2,299.1,472c1.5-2.5,3-5,4.6-7.5c0.4-0.8,0.9-1.5,1.3-2.3
	C310.9,470.2,303.3,470.1,299.1,472z M289.6,349.4c-4.8,18.1-16.2,28.7-32.4,35.3c-2.6,1.1-6.1-0.2-9.3-0.5c1.2-3.3,1.4-7.7,3.7-9.7
	c4.4-3.8,10.2-5.9,15-9.3c10.8-7.7,11.6-14,1.3-22.2c-5.8-4.6-6.8-10.3-7.7-16.3c-0.4-2.4,2-5.1,3.1-7.7c3,1.3,6.4,2.3,9,4.2
	c1.1,0.8,0.6,3.8,1.2,5.6c2.2,6.7,6.8,7.9,10.8,2.2c8.8-12.7,20.2-15.3,33.9-10.3c2.6,1,4.5,4,6.7,6c-2.5,2.2-5.1,4.5-6.3,5.6
	C296.9,330.1,294.5,330.6,289.6,349.4z M416.7,522.6c-3.8-0.9-6.9-1.2-9.6-2.5c-1.2-0.6-1.9-3.2-1.9-4.9c0-0.9,2.1-1.7,3.3-2.6
	c0.2,1.4,0,3.6,0.8,4.1c2.1,1.3,4.6,1.7,6.9,2.7c1.4,0.6,2.7,1.7,4,2.6C418.8,522.3,417.4,522.5,416.7,522.6z M478.2,424.9
	c-8.3-0.2-16.5,0.3-24.8,0.2c-3.8,0-7.9,0.3-11.2-1.1c-18.1-7.4-34-5-47,10c-5.2,6-11.1,8.3-18.7,7.2c-18-2.6-34.4-1-45.8,16
	c-1,1.5-6.7,1.6-8.8,0.2c-4.9-3.2,0-5.1,2.2-6.6c3.2-2.2,4.9-3.9,0.3-6.2c0.7-1.1,1.2-2.5,2.3-3.2c15-9.9,30.3-18.2,49.4-12.8
	c2.2,0.6,5.5-0.5,7.5-1.9c5.8-3.9,11.4-8.3,16.9-12.8c1.4-1.1,2-3.1,3.7-6.1c-4.6-3.8-8.5-8.5-13.5-10.8c-4.2-2-6.5-3.7-6.3-8.4
	c0.2-3.7,1.1-6.3,5.7-4.8c7,2.4,14.3,3.4,18.6,11c4.7,8.3,10.7,15.3,22.2,13.9c2.7-0.3,5.7,2.7,8.8,3.1c8.4,1,17,2.8,25.3,1.9
	c15-1.7,27.1,2.2,36.7,13.7c0.8,0.9,2,1.9,2,2.8c0.1,2.5-0.4,5-0.7,7.5c-2-0.7-4.7-0.9-5.9-2.3C492,429.5,486.2,425,478.2,424.9z
	 M536.1,497.7c-5,0.8-10.2,0.3-15.3,0.5c-9.7,0.3-10.6,1.3-11.3,10.8c-0.4,5.4-1,10.9-2.5,16.1c-0.8,2.7-4,4.7-6.1,7.1
	c-2.2-2.9-4.4-5.8-6.1-8c0.8-3.5,1.1-5.5,1.8-7.3c5.1-13.5-0.4-24.2-8.8-34.3c-1.6-2-2-5-2.9-7.6c3.5-0.4,7.2-1.6,10.4-0.9
	c2.2,0.5,5,3.3,5.6,5.6c2.5,9.2,9.3,9.1,16.6,8.9c6.3-0.2,12.6-0.2,18.8,0.4c1.8,0.2,3.4,2.6,5.1,3.9
	C539.7,494.5,538.1,497.4,536.1,497.7z M582.9,377.5c-1.7,1.2-4.8,2.5-6.3,1.7c-3.7-1.9-7-4.8-10.1-7.7c-10.6-9.9-17.7-9.8-28.9-1.4
	c-5.8,4.4-5.3,8.5-3.3,14.1c1.7,4.7,3.1,9.7,3.2,14.6c0.1,2.1-3.4,4.4-5.3,6.5c-2-1.8-4.2-3.4-5.9-5.5c-0.9-1.1-0.5-3-1-4.5
	c-5.7-18.6-13.2-22.9-32.4-19.1c-1.9,0.4-4.1,1.4-5.7,0.9c-2.7-0.8-5.1-2.7-7.6-4.1c1.7-2.2,3-5.7,5.3-6.5c5.8-2.1,12-3,15.9-3.8
	c5.6,0.5,8.9,0.3,11.8,1.3c7,2.4,12.2,0.6,18.4-3.6c21.9-15.3,38.3-7.9,52.1,12.1C583.8,373.7,583.8,376.9,582.9,377.5z"/>
<path fill="#D0251C" d="M303.7,464.5c0.4-0.8,0.9-1.5,1.3-2.3c5.8,8-1.8,7.9-5.9,9.8l0,0C300.7,469.5,302.2,467,303.7,464.5z"/>
<path fill="#D0251C" d="M295.1,473.5c-0.5,0.5-1,0.9-1.5,1.4c-0.2-0.3-0.4-0.6-0.5-1C293.6,473.8,294.3,473.6,295.1,473.5
	L295.1,473.5z"/>
<path fill="#D0251C" d="M457.9,594.8c6.5-0.1,13-0.1,19.4-0.2C472.2,605,466.1,605.1,457.9,594.8z"/>
<path fill="#E53524" d="M342.3,394.7c0.9-0.6,1.7-1.3,2.6-1.9C344.1,393.4,343.2,394,342.3,394.7z"/>
<path fill="#009FE3" stroke="#F9B233" stroke-width="2.8346" stroke-linecap="round" stroke-linejoin="round" stroke-miterlimit="10" d="
	M272.6,133c-2.3-5.5-4.6-11-6.8-16.5H148.9c-9.8,4.1-19.6,8.1-29.4,12.2c-9.6,4-19.2,7.8-28.7,11.9c-18.7,8.2-26.6,32.6-13,50.8
	c8.8,11.8,27,15.7,38.5,10.7c23.8-10.3,47.8-20,71.8-29.9c22.8-9.5,45.7-18.9,68.5-28.3c3-1.2,5.5-3.4,9.6-0.3
	c4.6,3.5,8.3,0.7,8-5.1C274,136.7,273.3,134.8,272.6,133z"/>
<g>
	<path d="M105.1,205.7c-11.2,0-22.4-5.3-28.5-13.4c-6.5-8.7-8.7-19.6-6-30c2.7-10.4,9.9-18.7,19.6-23c6.5-2.8,13.2-5.6,19.6-8.2
		c3-1.2,6.1-2.5,9.1-3.7l58.5-24.2c17.7-7.3,35.4-14.6,53-22c0.4-0.2,0.8-0.3,1.2-0.5c2.6-1,4.4-1.7,4.8-5.1
		c0.5-3.5,2.7-5.7,5.8-5.7c2.1,0,4.2,1,6,3c1.3,1.4,2.1,3.4,2.8,5.1l0.2,0.4c8.2,19.6,15.5,37.3,22.4,54.1c0.8,1.9,1.5,4,1.6,6
		c0.1,2.8-0.6,5.1-2,6.6c-1,1-2.2,1.6-3.7,1.6c-1.5,0-3.1-0.6-4.7-1.8c-1.2-0.9-2.2-1.3-3.2-1.3c-1.1,0-2.2,0.5-3.4,1.1
		c-0.5,0.2-1,0.5-1.5,0.7c-17.8,7.3-35.9,14.8-53.4,22l-15.2,6.3c-6.9,2.9-13.9,5.7-20.8,8.6c-16.7,6.9-34.1,14-50.9,21.3
		C113.4,204.9,109.4,205.7,105.1,205.7z M240.4,90.1c-0.9,0-2.4,0.6-4,1.3c-49,20.4-98.6,41-141.2,58.6c-6.5,2.7-10.3,6.6-11.9,12.2
		c0,0.2-0.1,0.3-0.2,0.4c-0.2,0.3-0.3,0.6-0.4,0.9c0,0.1,0,0.2-0.1,0.3c-2.8,7-2.2,14.1,1.8,20c4.2,6.3,11.6,10.3,18.8,10.3
		c0,0,0,0,0,0c0.4,0,0.9,0,1.3,0c4.4-0.3,9.1-2.2,13.1-3.9c34.8-14.3,70.2-29,104.4-43.1l28-11.6c0.6-0.2,1.2-0.5,1.8-0.8
		c1.2-0.6,2.5-1.1,3.9-1.6c1.1-0.3,1.8-0.8,2-1.3c0.3-0.6,0.1-1.7-0.5-3.2c-4.7-11.1-9.6-22.6-14.2-34.2
		C241.7,90.8,241.2,90.1,240.4,90.1z"/>
	<path fill="#F9B233" d="M242.4,71.3c1.6,0,3.4,0.8,5,2.5c1.3,1.4,2,3.3,2.7,5.1c7.5,18,15,36.1,22.4,54.1c0.7,1.8,1.4,3.7,1.5,5.6
		c0.2,4.1-1.6,6.7-4.2,6.7c-1.1,0-2.4-0.5-3.8-1.5c-1.6-1.2-2.9-1.6-4.1-1.6c-2,0-3.6,1.1-5.5,1.9c-22.9,9.4-45.7,18.9-68.5,28.3
		c-23.9,9.9-48,19.5-71.8,29.9c-3.3,1.4-7.1,2.1-11.1,2.1c-10,0-21.1-4.4-27.4-12.9c-13.6-18.2-5.7-42.6,13-50.8
		c9.5-4.2,19.1-8,28.7-11.9c14-5.8,28-11.6,42-17.4c23.2-9.6,46.4-19.2,69.6-28.9c3.1-1.3,6.3-1.8,6.9-6.7
		C238.4,72.8,240.3,71.3,242.4,71.3 M103.3,195.5c0.5,0,0.9,0,1.4,0c4.6-0.3,9.2-2.2,13.6-4c44.2-18.2,88.3-36.5,132.4-54.7
		c1.8-0.8,3.6-1.7,5.5-2.3c3.6-1.2,3.7-3.3,2.4-6.4c-4.8-11.4-9.6-22.7-14.1-34.2c-1.5-3.7-2.3-5.2-4-5.2c-1,0-2.4,0.5-4.5,1.4
		c-47,19.6-94.1,39.1-141.2,58.6c-6.2,2.6-10.8,6.5-12.7,13.1c-0.3,0.4-0.5,0.9-0.6,1.5C74.3,181,89.3,195.5,103.3,195.5
		 M242.4,68.4L242.4,68.4c-3.8,0-6.7,2.8-7.2,6.9c-0.3,2.6-1.4,3-3.9,4c-0.4,0.2-0.9,0.3-1.3,0.5c-17.7,7.4-35.8,14.9-53.3,22.1
		l-16.3,6.8l-14.7,6.1c-9.1,3.8-18.2,7.5-27.3,11.3c-3,1.3-6.1,2.5-9.1,3.7c-6.5,2.6-13.1,5.4-19.7,8.2
		c-10.1,4.4-17.5,13.1-20.4,23.9c-2.8,10.7-0.6,22.1,6.2,31.2c6.4,8.6,17.8,14,29.6,14c4.4,0,8.7-0.8,12.2-2.4
		c16.8-7.3,34.1-14.4,50.9-21.3c6.8-2.8,13.9-5.7,20.8-8.6c5.1-2.1,10.2-4.2,15.4-6.4c17.4-7.2,35.4-14.7,53.1-21.9
		c0.6-0.2,1.1-0.5,1.6-0.7c1.1-0.5,2-1,2.8-1c0.3,0,1,0,2.4,1c1.8,1.4,3.7,2.1,5.5,2.1c1.8,0,3.4-0.7,4.7-2c1.7-1.7,2.5-4.4,2.3-7.6
		c-0.1-2.3-0.9-4.5-1.7-6.5c-6.9-16.8-14.3-34.5-22.4-54.1l-0.2-0.4c-0.7-1.8-1.6-3.9-3.1-5.5C247.4,69.6,244.9,68.4,242.4,68.4
		L242.4,68.4z M103.3,192.7c-6.7,0-13.6-3.8-17.6-9.7c-3.7-5.5-4.3-12.2-1.7-18.7c0.1-0.2,0.1-0.4,0.2-0.6c0-0.1,0-0.2,0.1-0.3
		c0.2-0.3,0.3-0.5,0.4-0.8c1.5-5.2,5-8.8,11.1-11.3c42.6-17.6,92.2-38.1,141.2-58.6c0.8-0.3,2.5-1,3.3-1.1c0.5,0.6,1.3,2.7,1.6,3.4
		c4.6,11.6,9.5,23.1,14.2,34.3c0.6,1.5,0.6,2,0.5,2c0,0,0,0,0,0c0,0-0.3,0.3-1.2,0.5c-1.4,0.5-2.7,1-4,1.6c-0.6,0.3-1.1,0.5-1.7,0.7
		c-9.4,3.9-18.8,7.8-28.2,11.7c-34.2,14.1-69.5,28.8-104.2,43.1c-4.2,1.7-8.5,3.5-12.7,3.8C104.1,192.7,103.7,192.7,103.3,192.7
		L103.3,192.7z"/>
</g>
<path fill="#F3F4F4" stroke="#F9B233" stroke-miterlimit="10" d="M238.1,127.1c1.6,3.8,1.9,5.5,2.9,6.6c0.8,0.9,2.5,1.2,3.8,1.7
	c0.4-1.1,1.1-2.2,1-3.2c-0.1-1.5-0.5-3.1-1.1-4.5c-1.3-3-1.7-7.4-6.5-6.5C237.6,121.3,238,126.6,238.1,127.1z M215.4,141.9
	c-2.3-1-3.9-1.7-5.4-2.3c-0.2,1.8-1,3.7-0.5,5.2c0.5,1.5,2.4,2.5,3.7,3.7C213.9,146.5,214.5,144.5,215.4,141.9z M230.5,136.9
	c1.1,0.8,2.5,1.8,3.9,2.8c0.1-1.8,0.7-3.6,0.3-5.3c-0.3-1.3-1.7-2.5-2.9-3.4c-0.4-0.3-2.2,0.4-2.2,0.6
	C229.7,133.1,230,134.7,230.5,136.9z M218.6,140c2.2,1.6,3.8,2.8,5.4,3.9c0.3-1.3,1.2-2.8,0.7-3.8c-0.9-1.8-2.5-3.4-3.8-5
	C220.2,136.6,219.5,138.1,218.6,140z"/>
<g>
	<path stroke="#000000" stroke-miterlimit="10" d="M122.1,186.3c-1.6-0.1-3.1-0.1-4.7-0.2c-1.2-3.6-2.6-7.2-3.5-10.8
		c-0.2-0.8,0.6-2.6,1.3-2.8c0.9-0.2,2.5,0.4,3.1,1.2C121.2,177.3,123.1,181.4,122.1,186.3z"/>
	<path stroke="#000000" stroke-miterlimit="10" d="M132.9,181.7c-1.3,0.5-2.5,0.9-3.8,1.4c-0.9-1.8-2.2-3.4-2.6-5.3
		c-0.3-1.2,0.7-2.6,1.1-4c1.2,0.7,2.8,1.2,3.5,2.3C132,177.7,132.3,179.8,132.9,181.7z"/>
	<path stroke="#000000" stroke-miterlimit="10" d="M143.7,177.1c-1.2,0.6-2.5,1.1-3.7,1.7c-1.2-3-5.7-7.1-1.6-8.9
		C142.9,167.9,142.4,174.1,143.7,177.1z"/>
	<g>
		<path stroke="#000000" stroke-miterlimit="10" d="M163.9,168.9c-1.3,0.5-2.6,0.9-3.8,1.4c-2.1-4.2-6-8-3.9-13.4
			C162.9,158.2,161.7,164.7,163.9,168.9z"/>
		<path stroke="#000000" stroke-miterlimit="10" d="M184,160.6c-0.8,0.3-1.5,0.7-2.3,1c-0.3-0.3-0.5-0.6-0.8-0.8
			c-3.4-2.1-4.9-4.8-2.8-8.6c0.3-0.4,1.2-0.9,1.6-0.8c4.1,1.2,5,4.2,4.2,8C183.9,159.8,184,160.2,184,160.6z"/>
		<path stroke="#000000" stroke-miterlimit="10" d="M153.1,173.5c-1.2,0.2-2.4,0.4-3.6,0.5c-2.1-2.4-4.2-4.9-2-8.2
			c0.4-0.6,2.3-1,3-0.6C154.3,167,153.1,170.4,153.1,173.5z"/>
		<path stroke="#000000" stroke-miterlimit="10" d="M194.8,156.1c-1.3,0.4-2.5,0.9-3.8,1.3c-0.9-1.8-2.2-3.4-2.6-5.3
			c-0.3-1.2,0.7-2.6,1.1-3.9c1.2,0.7,2.8,1.2,3.4,2.3C193.9,152.1,194.2,154.2,194.8,156.1z"/>
		<path stroke="#000000" stroke-miterlimit="10" d="M174.5,164.2c-1.2,0.6-2.4,1.2-3.6,1.8c-1.4-3-5.7-7.2-1.6-8.9
			C173.9,155.1,173.4,161.2,174.5,164.2z"/>
		<g>
			<path stroke="#000000" stroke-miterlimit="10" d="M198.3,138.6c5.2,2.1,5.2,7.3,6.5,11.6c0.2,0.6-1.9,1.9-2.9,2.9
				C200.1,148.5,194.9,144.6,198.3,138.6z"/>
			<path stroke="#000000" stroke-miterlimit="10" d="M238.1,127.1c0-0.5-0.5-5.8,0-5.9c4.8-0.9,5.1,3.5,6.5,6.5
				c0.6,1.4,1.1,3,1.1,4.5c0.1,1.1-0.6,2.2-1,3.2c-1.3-0.5-2.9-0.8-3.8-1.7C239.9,132.6,239.6,130.9,238.1,127.1z"/>
			<path stroke="#000000" stroke-miterlimit="10" d="M215.4,141.9c-0.9,2.7-1.6,4.6-2.3,6.6c-1.3-1.2-3.2-2.2-3.7-3.7
				c-0.5-1.5,0.3-3.5,0.5-5.2C211.6,140.2,213.2,140.9,215.4,141.9z"/>
			<path stroke="#000000" stroke-miterlimit="10" d="M230.5,136.9c-0.4-2.2-0.8-3.7-0.9-5.3c0-0.2,1.9-0.9,2.2-0.6
				c1.2,0.9,2.5,2.1,2.9,3.4c0.4,1.6-0.2,3.5-0.3,5.3C233,138.6,231.6,137.7,230.5,136.9z"/>
			<path stroke="#000000" stroke-miterlimit="10" d="M218.6,140c1-2,1.6-3.4,2.3-4.8c1.3,1.6,2.9,3.1,3.8,5c0.4,0.9-0.4,2.5-0.7,3.8
				C222.4,142.8,220.7,141.6,218.6,140z"/>
		</g>
	</g>
</g>
<path fill="none" stroke="#D0251C" stroke-width="9" stroke-linecap="round" stroke-linejoin="round" stroke-miterlimit="10" d="
	M299.1,467.1c10.3-0.8,27.6-13.8,27.6-13.8s12.6-23.5,43-20.2c30.3,3.3,41.1-22.3,41.2-23.1c0.2-0.8-9.7-19.5-23.1-19.8
	c-13.4-0.3-28.8-17.8-49.5,3.6"/>
<path fill="none" stroke="#D0251C" stroke-width="9" stroke-linecap="round" stroke-linejoin="round" stroke-miterlimit="10" d="
	M408.4,517c0,0,25.4,11.5,34.2,5.9"/>
<path fill="none" stroke="#D0251C" stroke-width="9" stroke-linecap="round" stroke-linejoin="round" stroke-miterlimit="10" d="
	M470.3,602.4c0,0-18.3,5.5-18-15.5c0.3-21,7.4-17.8,7.4-17.8"/>
<g>
	<path fill="#009FE3" d="M260.7,287.8c2.6-2.4,5.7-4.4,8.7-6.3c3-1.9,6.1-3.7,8.8-5.8c2.7-2.1,5-4.6,6.7-7.4l0.7-1l0.5-1.1
		c0.3-0.8,0.7-1.5,1-2.3c0.5-1.6,1.2-3.1,1.6-4.8l0.6-2.4c0.2-0.8,0.3-1.7,0.5-2.5l0.4-2.5c0.1-0.8,0.2-1.7,0.3-2.6l0.3-2.6l0.1-0.6
		l0,0c0-0.2,0,0.2,0,0.2l0-0.1l0-0.2l0-0.3l0-1.3l0.1-5.3c0-3.5,0.1-7.1,0-10.6l-0.1-10.5l-0.3-10.6c-0.1-3.5-0.4-7-0.5-10.5
		c-0.1-1.8-0.2-3.5-0.4-5.2l-0.4-5.2c-0.3-3.5-0.7-7-1-10.4l-0.7-5.2c-0.2-1.7-0.4-3.5-0.7-5.2l-0.8-5.1L285,155
		c-0.7-3.4-1.4-6.7-2.3-10c-0.4-1.6-0.9-3.3-1.4-4.8c-0.2-0.8-0.5-1.6-0.7-2.3c-0.1-0.4-0.3-0.8-0.4-1.1c-0.1-0.3-0.3-0.8-0.3-0.9
		c-0.1-0.1-0.1-0.3-0.2-0.4l-0.1-0.4l-3.4-11.6c-1.1-3.8,1.1-7.8,4.9-8.9c3.7-1.1,7.6,0.9,8.8,4.6l0.1,0.3c1.3,3.8,2.5,7.5,3.7,11.3
		c1.2,3.8,2.4,7.6,3.6,11.4c1.2,3.8,2.3,7.6,3.5,11.4l1.7,5.7l1.6,5.8l1.6,5.8l1.5,5.8l1.5,5.8c0.5,2,0.9,4,1.3,6c0.4,2,0.9,4,1.2,6
		l1,5.8l2.1,11.7l1,5.8l0.6,2.4l0.7,2.8c0.9,3.7,2,7.3,3.1,10.9c1.2,3.5,2.4,7,3.9,10.1c0.7,1.5,1.5,3,2.3,4.2
		c0.2,0.3,0.4,0.6,0.6,0.8c0.2,0.3,0.4,0.5,0.5,0.7c0.1,0.1,0.2,0.2,0.2,0.3c0.1,0.1,0.1,0.1,0.2,0.2c0.1,0.1,0.1,0.1,0.1,0.1
		c0,0,0.1,0.1,0,0.1c0,0,0,0-0.1,0c0,0-0.2-0.1-0.3-0.1l-0.1,0l0,0c-0.1,0,0.8,0.3,0.4,0.2l0.3,0.1l0.3,0.1l0.2,0.1l0.3,0.1
		c0.5,0.2,0.9,0.4,1.4,0.6l0.3,0.2l0.2,0.1l0.5,0.3c0.7,0.4,1.3,0.8,1.8,1.2c2.3,1.7,4,3.4,5.6,5.2c3.1,3.6,5.5,7.3,7.6,11.1
		c4.1,7.6,7,15.6,9.2,23.5c2.2,8,3.7,16.1,4.7,24.2c1.1,8.1,1.5,16.3,1.7,24.2c0.2,8,0.2,15.9,0.1,23.9c-0.1,8-0.4,15.9-0.8,23.8
		c-0.4,7.9-1,15.9-1.8,23.8c-0.8,7.9-1.8,15.8-3.1,23.7c-1.2,7.9-2.9,15.7-5.1,23.4c-1.1,3.8-2.4,7.6-4.2,11.3
		c-0.9,1.8-1.8,3.6-3.1,5.2c-1.2,1.6-2.7,3.1-4.5,3.9c1.7-1.1,2.8-2.7,3.8-4.4c0.9-1.7,1.6-3.5,2.2-5.4c0.6-1.8,1.1-3.7,1.5-5.6
		c0.4-1.9,0.8-3.8,1.1-5.7c1.3-7.7,1.9-15.5,2.5-23.3c0.5-7.8,0.7-15.7,0.8-23.5c0.1-7.8,0.1-15.7,0-23.5
		c-0.1-7.8-0.4-15.7-0.7-23.5c-0.3-7.8-0.8-15.6-1.4-23.4c-0.3-3.9-0.6-7.8-1-11.6c-0.5-3.8-0.9-7.6-1.6-11.3
		c-1.2-7.5-2.9-14.9-5.1-22.1c-2.2-7.1-5-14.1-8.5-20.2c-1.8-3.1-3.7-6-5.8-8.3c-1-1.2-2.1-2.2-3.1-2.8c-0.2-0.2-0.5-0.3-0.7-0.4
		l-0.1-0.1l-0.1,0l0,0c0,0,0,0,0,0c0,0,0,0,0,0l-0.2-0.1l-0.3-0.1l-0.3-0.1c-0.4-0.1,0.4,0.1,0.3,0.1l-0.2-0.1l-0.4-0.2
		c-0.5-0.2-1.1-0.4-1.6-0.7c-0.4-0.3-0.9-0.5-1.3-0.8c-0.5-0.3-0.8-0.5-1.1-0.8c-0.3-0.3-0.7-0.6-1-0.8c-0.5-0.5-1.2-1.1-1.6-1.7
		c-0.5-0.5-1-1.1-1.3-1.6c-0.4-0.5-0.8-1.1-1.1-1.6c-1.4-2.1-2.5-4.1-3.4-6.1c-1.9-4-3.4-8-4.7-11.9c-1.3-4-2.5-7.9-3.5-11.9l-0.8-3
		l-0.4-1.5l-0.2-0.8l-0.1-0.4l-0.1-0.7l-1-5.8l-2-11.7l-1-5.8c-0.3-1.9-0.7-3.7-1.1-5.6c-0.4-1.9-0.7-3.7-1.2-5.6l-1.3-5.7l-1.3-5.7
		l-1.5-5.7l-1.5-5.7l-1.6-5.7c-1-3.8-2-7.6-3.1-11.3c-2.1-7.5-4.4-15.1-6.6-22.6l13.7-4.1l3,11.7l-0.3-0.9c0.3,0.7,0.4,1.1,0.6,1.6
		c0.2,0.5,0.3,1,0.4,1.4c0.3,1,0.5,1.9,0.8,2.8c0.5,1.8,0.9,3.7,1.3,5.5c0.8,3.6,1.4,7.3,1.9,10.9l0.7,5.4l0.6,5.4
		c0.2,1.8,0.3,3.6,0.5,5.4l0.4,5.4c0.1,3.6,0.4,7.2,0.4,10.8c0,3.6,0.2,7.2,0.1,10.8c-0.1,3.6-0.1,7.2-0.2,10.8l-0.5,10.8l-0.8,10.8
		c-0.2,3.6-0.7,7.1-1,10.6l-0.6,5.3l-0.1,1.3l-0.1,0.9l-0.1,0.7l-0.5,2.7c-0.2,0.9-0.3,1.8-0.6,2.7l-0.7,2.7
		c-0.3,0.9-0.5,1.8-0.8,2.7l-1,2.6c-0.6,1.8-1.5,3.4-2.3,5.1c-0.4,0.8-1,1.6-1.5,2.4l-0.8,1.2l-0.9,1.1l-0.9,1.1l-0.4,0.6l-0.5,0.5
		c-0.7,0.7-1.3,1.3-2,2l-2.2,1.8c-0.8,0.5-1.5,1-2.3,1.5c-3.1,1.9-6.5,3.3-9.7,4.8C266.9,284.3,263.7,285.8,260.7,287.8z"/>
</g>
<g>
	<path fill="#009FE3" d="M410.9,310.3l-1.7,0.4c-0.1,0-0.2,0-0.2-0.1l-0.1-0.1c-2.6-2.8-5.2-5.5-7.7-8.3l-7.5-8.3l-3.8-4.1
		c-1.2-1.3-2.5-2.7-3.8-4c-2.5-2.7-5.1-5.2-7.6-7.6c-2.5-2.3-5.2-4.4-7.3-5.4l-2.5-1.2l-1.2-0.6l-0.6-0.3l-0.6-0.2l-4.6-2
		c-1.7-0.7-3.4-1.4-5-2.1l-5.2-2.1c-3.5-1.5-7-3-10.5-4.8c-1.8-0.8-3.5-1.8-5.3-2.8c-0.9-0.5-1.8-1-2.6-1.5
		c-0.9-0.6-1.7-1.2-2.6-1.8l-2.6-1.8l-0.2-0.1l-0.4-0.3l0,0l-0.1-0.1l-0.3-0.2l-0.5-0.5l-0.3-0.2l-0.4-0.4l-0.8-0.8l-0.8-0.8
		c-0.2-0.3-0.4-0.5-0.6-0.7l-1.1-1.3c-0.6-0.9-1.3-1.8-1.9-2.6c-2.3-3.5-4.2-7-5.9-10.5c-1.7-3.5-3.2-7-4.6-10.6
		c-0.7-1.8-1.4-3.6-2-5.3c-0.6-1.8-1.3-3.6-1.9-5.4c-1.2-3.6-2.3-7.2-3.3-10.9c-1-3.7-1.9-7.3-2.7-11c-0.8-3.7-1.5-7.4-2-11.2
		c2.1,3.2,4.2,6.4,6.1,9.6c2,3.2,3.9,6.4,5.8,9.6l11.3,19.1c1.9,3.1,3.8,6.2,5.7,9.3c1.9,3,3.9,5.9,5.9,8.5c0.5,0.7,1,1.2,1.5,1.8
		l0.7,0.8c0.1,0.1,0.3,0.3,0.3,0.4c0.1,0.1,0.1,0.1,0.2,0.2s0.1,0.1,0.2,0.2c0,0,0,0.1,0.1,0.1l0.3,0.2l0.5,0.4l0.3,0.2l0.1,0.1l0,0
		c0.3,0.3-0.4-0.3-0.3-0.2l0.1,0.1l2.1,1.3c0.7,0.4,1.4,0.9,2.1,1.3c0.7,0.4,1.5,0.8,2.2,1.2c1.5,0.8,3,1.6,4.6,2.4
		c3.1,1.6,6.4,3.1,9.8,4.6l5.1,2.4c1.7,0.8,3.5,1.6,5.2,2.5c1.8,0.9,3.6,1.9,5.4,2.9l0.7,0.4l0.6,0.4l1.2,0.7l2.4,1.5
		c4.3,2.9,7,6,9.6,9.1c1.2,1.6,2.5,3.1,3.5,4.8c1.1,1.6,2.2,3.2,3.2,4.8c1,1.6,2,3.3,3,4.9c1,1.7,1.8,3.3,2.8,5
		c1.8,3.4,3.4,6.8,5,10.3c1.5,3.5,3,7,4.2,10.6l-0.3-0.2L410.9,310.3z"/>
</g>
<g>
	<path fill="#009FE3" d="M293.8,355.2c0,0-1-2.6-2.2-7.4c-1.2-4.8-2.6-11.7-3.3-20.1c-0.3-4.2-0.5-8.9-0.2-13.9
		c0.3-5,0.9-10.3,2.6-16c0.9-2.8,2.1-5.8,3.9-8.7c0.5-0.7,0.9-1.5,1.5-2.2l0.9-1.1l0.4-0.5l0.2-0.3l0.1-0.1c0.3-0.3-0.3,0.3-0.2,0.2
		l0.1-0.1l0.3-0.4l0.2-0.2l0.1-0.1l0,0c0,0-0.1,0-0.1,0c0.1-0.1,0.1-0.3,0.2-0.4l0.2-0.5c0.3-0.7,0.5-1.6,0.8-2.6
		c0.2-1,0.4-2.1,0.5-3.2c0.3-2.3,0.5-4.7,0.5-7.3c0.2-5-0.1-10.3-0.3-15.5c-0.2-2.6-0.3-5.2-0.5-7.8c-0.2-2.6-0.4-5.1-0.6-7.7
		c-0.4-5.1-0.8-10-1.1-14.6c-0.3-4.7-0.6-9.1-0.9-13.2c-0.2-4.1-0.4-7.9-0.5-11.3c-0.1-3.4-0.1-6.3-0.1-8.8c0-2.5,0.2-4.4,0.3-5.7
		c0.1-0.7,0.2-1.2,0.3-1.5c0.1-0.4,0.3-0.5,0.3-0.5s-0.1,0.2,0,0.5c0.1,0.3,0.2,0.8,0.4,1.4c0.4,1.2,1.1,3,1.9,5.3
		c0.8,2.3,1.9,5,3,8.2c1.1,3.2,2.3,6.8,3.5,10.8c1.2,4,2.5,8.3,3.6,12.9c1.2,4.6,2.3,9.5,3.3,14.7c0.5,2.6,0.9,5.2,1.4,7.9
		c0.2,1.3,0.4,2.7,0.6,4.1c0.2,1.4,0.3,2.7,0.5,4.1c0.6,5.5,0.9,11.3,0.8,17.2c-0.1,3-0.3,6-0.8,9.1c-0.5,3.1-1.2,6.4-2.9,9.9
		c-0.2,0.4-0.4,0.9-0.7,1.3l-0.8,1.4c-0.3,0.5-0.8,1.1-1.2,1.7l-0.2,0.2l-0.1,0.1l-0.2,0.2L309,295l-0.5,0.6l-0.2,0.2l-0.4,0.4
		c-0.3,0.3-0.6,0.7-0.8,1c-1.1,1.5-2.1,3.3-3,5.3c-1.8,4-3,8.5-4,12.8c-1,4.3-1.8,8.6-2.4,12.6c-0.7,4-1.2,7.7-1.6,11
		c-0.4,3.3-0.8,6.2-1.1,8.6C294.2,352.4,293.8,355.2,293.8,355.2z"/>
</g>
<path fill="#009FE3" d="M307.2,280.8c-10.9,10-12.6-19.3-20.8-11.3c-8.3,8,13.1-16.6,11.8-76.3c1,2.9,37.2,54.1,37.2,54.1l26,12.7
	c0,0-32.3-13.5-22.1,12.8C349.5,299.1,332.9,257.2,307.2,280.8z"/>
<g>
	<path d="M511.5,315.5c-1.5,0.9-4,2.3-6.4,4c-4.8,3.5-5.4,3.4-10.8-2.1c-3.3-3.4-3.3-4.2,0-8.4c5.7-7.2,2.6-14.9-6.5-16.4
		c-0.3,0-0.5-0.1-0.8-0.1c-7.6-1.1-9.7-4.1-7.6-11.6c0.4-1.3,2.1-2.3,3.4-3.1c0.9-0.5,2.3-0.3,3.4-0.4c8.2-1.2,11.3-9.2,6.2-15.9
		c-0.2-0.2-0.3-0.4-0.5-0.6c-4.8-6.1-4.1-9.7,2.9-13.6c1.2-0.6,3.1-0.2,4.6,0.2c1,0.3,1.9,1.3,2.8,2c6.4,4.8,14.4,1.6,15.8-6.3
		c0.2-1,0.4-2,0.5-3c0.6-5.5,1.3-6.1,6.7-6.1c7.5-0.1,7.8,0.2,8.7,7.4c0.8,6.3,8.8,10.1,14.5,6.8c0.7-0.4,1.3-0.9,1.9-1.3
		c7-5.2,7.5-5.1,13.4,1.4c1.9,2.1,2,4,0.3,6.2c-0.5,0.6-0.9,1.2-1.4,1.8c-1.9,2.4-4.5,4.7-2.7,8.1c2,3.9,4.1,7.9,9.5,7.8
		c0.4,0,0.8,0.1,1.1,0.2c7.2,1.1,9.4,4.5,7.3,11.6c-0.3,1.1-1.7,2.2-2.8,2.8c-1.1,0.6-2.5,0.5-3.8,0.6c-3.1,0.4-6.4,0.4-7.6,4
		c-1.3,4.1-2.5,8.2,1,11.9c0.1,0.1,0.2,0.2,0.2,0.3c5.1,6.6,4.9,8.9-2.3,13.6c-1.2,0.8-3.3,0.4-4.9,0.1c-0.9-0.1-1.7-1.1-2.5-1.8
		c-2.4-1.9-4.8-4.3-8.2-2.7c-4.1,2-8,4.3-8.2,9.7c-0.1,1.5,0,3.3-0.7,4.5c-0.9,1.4-2.5,2.4-3.9,3.4c-0.5,0.4-1.5,0.1-2.3,0.1
		c-7.7,0-7.7,0-8.6-7.7C522.6,317.8,519.2,315.3,511.5,315.5z M504.8,282.6c0,12.8,10.8,23.3,23.8,23.3c13,0,23.8-10.5,23.9-23.3
		c0.1-12.8-10.9-23.6-24-23.5C515.4,259.2,504.8,269.7,504.8,282.6z"/>
	<path d="M610.4,245c0.1,0.4,0.2,1.2,0.4,1.9c1.4,6.5,1.2,6.6-5,8.7c-3.1,1.1-5,0.4-6.5-2.6c-3.9-7.8-10.9-8.1-15.8-0.8
		c-3.2,4.7-8.1,5.2-11.8,0.7c-0.9-1-0.6-3.3-0.3-4.9c0.5-2.7,2.7-5.3,0.1-7.9c-2.9-2.9-5.9-5-10.6-3.7c-6,1.7-9.4-1.1-9-7.4
		c0.1-1.5,2.2-3.2,3.7-4.1c5.4-2.9,6.7-4.8,4.6-10.3c-0.8-2.1-3-4.1-5.1-5.4c-3.1-2-4.4-3.8-2.5-7.5c2.8-5.3,3.1-5.6,8.1-3.9
		c7.3,2.5,12.6-2.3,11.2-10.1c-1.2-6.5,0.4-8.9,7.1-9.3c1.4-0.1,3.4,1.6,4.2,3c4.5,8.1,11.1,8.3,16.3,0.4c2.8-4.2,9.2-4.2,11.9,0.2
		c0.7,1.1,0.3,3.2-0.1,4.7c-2.5,7.9,2.1,13.3,10.3,11.4c7.3-1.7,7.1-0.4,9.3,6.9c0.3,1.1-1.5,3.4-2.8,4.2c-8.5,4.7-8.7,11-0.3,16.3
		c2.9,1.8,4.4,3.5,2.5,7.1c-2.9,5.5-3.2,5.8-8,4.2C615.8,234.6,610.1,238.5,610.4,245z M591.2,232.3c8.7,0,15.5-6.7,15.5-15.2
		c0-8.2-6.9-15-15.3-15c-8.5,0-15.6,7-15.5,15.3C575.9,225.7,582.8,232.3,591.2,232.3z"/>
	<path d="M619.5,269.6c-0.4,0.5-0.9,1.1-1.5,1.8c-2.9,3-2.3,5.9,1.7,7.6c1.8,0.7,3.3,1.1,2.7,3.7c-0.5,2.2-1.5,2.9-3.7,2.8
		c-3.7-0.1-5.6,2.7-4.2,6.1c0.9,2,1.7,3.5-0.8,5.1c-2.3,1.5-3.4,0.3-4.8-1.2c-2.3-2.3-5.4-1.5-7,1.8c-0.8,1.7-1,3.6-3.9,3
		c-2.9-0.6-2.9-2.1-2.9-4.4c0-3.2-3-4.7-6.5-3.2c-1.9,0.8-3.4,1.4-4.9-0.9c-1.5-2.3-0.5-3.3,1.1-4.8c2.3-2.1,1.5-5.3-1.5-6.8
		c-1.7-0.9-4.1-0.8-3.4-4c0.6-2.9,2.4-2.7,4.5-2.7c3.2,0,4.7-3.1,3.2-6.5c-0.7-1.7-1.5-3.1,0.7-4.5c2.1-1.3,3.3-1.1,4.9,0.7
		c2.4,2.7,5.7,1.9,7.2-1.6c0.8-1.8,1.1-3.6,3.9-3c2.8,0.6,2.9,2.1,2.9,4.4c-0.1,3.3,2.9,4.6,6.8,3.1
		C616.6,265.1,619.5,266.8,619.5,269.6z M601.2,286.4c4,0,7.1-3.2,7-7.1c-0.1-3.7-3.2-6.7-7.1-6.7c-3.9,0-7.1,3.2-7,7.1
		C594.2,283.5,597.3,286.4,601.2,286.4z"/>
</g>
</svg>
